<?xml version="1.0" encoding="iso-8859-1"?>
<!-- Generator: Adobe Illustrator 22.0.1, SVG Export Plug-In . SVG Version: 6.00 Build 0)  -->
<svg version="1.1" id="Layer_1" xmlns="http://www.w3.org/2000/svg" xmlns:xlink="http://www.w3.org/1999/xlink" x="0px" y="0px"
	 viewBox="0 0 1484.351 1419.266" style="enable-background:new 0 0 1484.351 1419.266;" xml:space="preserve">
<g>
	<path style="fill:#9F9F9F;" d="M1325.115,1201.385c-20.525-87.952-37.002-179.385-63.733-267.715
		c-31.764-104.963-84.457-198.814-189.169-249.301c-28.414-13.7-61.421-18.104-92.536-25.918
		c-43.617-10.954-73.475,19.366-109.793,38.572c31.931,78.522-21.557,129.814-65.361,181.291
		c-68.671,80.701-140.327,159.057-214.06,235.169c-35.293,36.431-76.544,67.917-118.455,96.764
		c-21.075,14.505-28.937,29.967-28.182,52.743c1.385,41.74,3.393,83.459,4.959,125.194c0.383,10.2,0.057,20.428,0.057,31.082
		C254.181,1354.858,45.273,1132.46,7.214,849.151C-41.897,483.578,164.361,165.24,485.432,46.712
		c320.369-118.269,650.523-1.94,840.128,236.164C1554.774,570.721,1519.173,974.095,1325.115,1201.385z M655.622,699.685
		c-33.206-15.879-58.647-34.546-86.665-40.021c-50.573-9.884-102.468,3.772-143.536,30.498
		c-137.673,89.593-212.44,218.491-221.69,383.998c-5.337,95.485,78.021,184.609,194.506,143.615
		c88.019-30.977,152.326-93.163,213.49-156.425c78.237-80.919,147.86-170.347,218.529-258.251
		c13.869-17.252,17.98-43.822,22.249-66.897c4.105-22.188-5.786-30.825-31.069-26.015c-27.5,5.232-56.871,0.525-84.431,5.579
		c-24.529,4.498-51.393-19.846-73.843,8.46c-39.545,49.86-78.977,99.985-121.506,147.255
		c-42.742,47.505-89.204,91.664-134.036,137.289c-2.37-2.22-4.739-4.44-7.109-6.66c13.198-36.923,32.716-64.038,65.978-92.708
		C535.38,850.023,590.156,774.271,655.622,699.685z M755.947,693.862c144.829,1.132,258.817-112.973,258.284-256.44
		c-0.556-149.561-113.355-256.893-257.106-257.171c-141.732-0.274-254.101,104.572-256.761,257.645
		C497.965,575.936,617.755,695.225,755.947,693.862z"/>
	<path style="fill:#9F9F9F;" d="M1065.765,1413.452c0-160.423,0-313.809,0-467.194c2.38-0.804,4.76-1.609,7.139-2.413
		c11.315,33.406,27.763,66.033,32.98,100.366c15.399,101.334,26.718,203.301,38.377,305.165c0.957,8.36-5.211,21.256-12.192,26.096
		C1112.529,1389.017,1090.825,1399.442,1065.765,1413.452z"/>
</g>
</svg>
