<?xml version="1.0" encoding="iso-8859-1"?>
<!-- Generator: Adobe Illustrator 22.0.1, SVG Export Plug-In . SVG Version: 6.00 Build 0)  -->
<svg version="1.1" id="Layer_1" xmlns="http://www.w3.org/2000/svg" xmlns:xlink="http://www.w3.org/1999/xlink" x="0px" y="0px"
	 viewBox="0 0 1484.969 1457" style="enable-background:new 0 0 1484.969 1457;" xml:space="preserve">
<g>
	<path style="fill:#9F9F9F;" d="M2.794,786.245C-24.183,512.999,144.726,168.72,486.185,45.454
		c327.626-118.272,698.288-2.731,889.364,311.597c177.751,292.409,130.077,642.654-78.945,871.751
		c-85.472-108.952-170.471-217.303-252.564-321.948c38.613-17.884,80.197-29.964,113.204-53.881
		c76.123-55.159,47.697-137.701-23.851-166.205c-79.556-31.694-161.999-58.24-245.346-77.837
		c-132.157-31.074-267.638-32.919-402.928-29.375c-43.795,1.147-75.055,24.045-89.657,64.249
		c-11.82,32.544-2.953,73.751,27.23,94.742c18.743,13.036,43.755,22.049,66.5,23.357c56.666,3.257,113.692-0.406,170.489,1.396
		c106.585,3.382,210.913,21.667,312.48,54.24c8.867,2.844,15.143,13.768,19.489,24.604
		c-102.927-25.132-203.204-49.432-307.645-51.471c-70.036-1.368-140.089-7.249-210.039-5.964
		c-59.779,1.097-108.989-56.318-108.165-113.257c0.877-60.573,44.562-110.839,105.198-112.955
		c17.816-0.622,35.594-2.313,65.912-4.36c-15.752-16.89-22.933-31.221-33.901-35.257c-63.661-23.426-128.988-21.008-185.494,14.892
		c-63.242,40.18-121.343,88.752-179.966,135.807C91.9,706.221,48.88,746.135,2.794,786.245z M1018.081,614.552
		c2.406-3.136,4.944-5.684,6.6-8.714c89.777-164.211-22.026-366.597-210.032-377.963
		c-168.834-10.207-297.058,138.09-266.173,302.801c1.499,7.996,13.231,18.264,21.703,19.962c23.672,4.745,48.191,8.022,72.277,7.482
		C770.524,555.246,894.025,582.275,1018.081,614.552z"/>
	<path style="fill:#9F9F9F;" d="M1011.206,906.632c90.251,115.989,179.432,230.604,270.186,347.24
		c-25.653,22.935-50.57,45.213-78.824,70.474c-48.882-89.26-95.588-174.546-142.611-260.413
		c-29.297,13.132-13.16,27.103-6.239,39.832c42.328,77.853,84.845,155.604,131.794,241.624
		c-75.593,37.913-149.003,74.732-222.534,111.611c-11.21-14.692-16.97-24.893-25.129-32.535
		c-112.479-105.359-114.54-240.554-100.745-378.887c3.467-34.773,19.204-68.156,25.61-102.859
		c4.506-24.41,18.939-23.974,37.581-25.119C936.899,915.352,973.346,910.528,1011.206,906.632z M900.165,952.158
		c44.311,136.321,88.618,273.651,134.125,410.583c3.409,10.256,15.388,17.664,23.384,26.396c0.153-11.769,3.202-24.404-0.017-35.164
		c-19.366-64.735-39.975-129.103-60.546-193.473c-21.308-66.676-42.744-133.315-64.818-199.74
		C927.151,945.289,918.602,932.632,900.165,952.158z"/>
	<path style="fill:#9F9F9F;" d="M267.043,796.726c-9.189,195.397,31.187,380.849,78.197,567.176
		C227.629,1308.328,90.858,1141,42.949,989.717c36.414-31.131,73.462-62.625,110.308-94.353
		C190.244,863.513,227.031,831.428,267.043,796.726z"/>
</g>
</svg>
