<?xml version="1.0" encoding="iso-8859-1"?>
<!-- Generator: Adobe Illustrator 22.0.1, SVG Export Plug-In . SVG Version: 6.00 Build 0)  -->
<svg version="1.1" xmlns="http://www.w3.org/2000/svg" xmlns:xlink="http://www.w3.org/1999/xlink" x="0px" y="0px"
	 viewBox="0 0 322.402 306.388" style="enable-background:new 0 0 322.402 306.388;" xml:space="preserve">
<g id="Layer_2">
</g>
<g id="Stethoscope">
	<g>
		<polygon style="fill:#E15465;" points="150.155,47.809 150.155,77.592 115.622,77.592 115.622,115.501 85.809,115.501 
			85.809,77.592 51.275,77.592 51.275,47.809 85.809,47.809 85.809,9.9 115.622,9.9 115.622,47.809 		"/>
		<g>
			<g>
				<path style="fill:#14133F;" d="M161.737,128.805h-19.89c-26.146,0-47.415-21.269-47.415-47.415v-1.499
					c0-11.953,3.011-23.824,8.708-34.337l16.556-30.54l9.261,5.021l-16.556,30.54c-4.863,8.973-7.433,19.111-7.433,29.315v1.499
					c0,20.336,16.542,36.878,36.878,36.878h19.89c20.336,0,36.878-16.542,36.878-36.878c0-11.106-3.012-22.02-8.712-31.558
					l-17.691-29.603l9.041-5.406l17.695,29.603c6.675,11.175,10.204,23.954,10.204,36.964
					C209.152,107.536,187.883,128.805,161.737,128.805z"/>
			</g>
			<path style="fill:#14133F;" d="M255.838,124.925c-0.4-3.201-2.46-5.975-5.974-5.975c-2.918,0-6.377,2.751-5.975,5.975
				c2.865,22.953-2.025,52.56-26.276,62.436c-20.707,8.433-44.089-3.112-53.497-22.425c-5.539-11.371-6.387-24.785-3.299-36.949
				c1.893-7.456-9.629-10.637-11.522-3.177c-6.701,26.4,2.85,57.333,27.886,70.561c11.711,6.187,25.593,8.331,38.519,5.126
				c13.284-3.294,24.28-12.621,31.273-24.193C256.244,160.965,258.02,142.403,255.838,124.925z"/>
			<polygon style="fill:#765DA8;" points="138.051,116.056 170.072,116.056 170.072,131.16 162.017,131.16 162.017,138.209 
				145.1,138.209 145.1,130.757 138.051,130.757 			"/>
			<g>
				<path style="fill:#765DA8;" d="M129.449,24.097l-12.969-7.569c-0.236-0.138-0.317-0.444-0.179-0.68l2.087-3.577
					c0.138-0.236,0.444-0.317,0.68-0.179l12.97,7.569c0.236,0.138,0.317,0.444,0.179,0.68l-2.087,3.577
					C129.991,24.154,129.685,24.234,129.449,24.097z"/>
				<path style="fill:#765DA8;" d="M137.004,16.807L118.24,5.857c-0.413-0.241-0.553-0.775-0.312-1.188l2.474-4.24
					c0.241-0.413,0.775-0.553,1.188-0.312l18.764,10.95c0.413,0.241,0.553,0.775,0.312,1.188l-2.474,4.24
					C137.951,16.908,137.416,17.048,137.004,16.807z"/>
				<polygon style="fill:#EAEAEA;" points="119.922,12.591 120.36,7.095 134.884,15.57 131.184,19.163 				"/>
			</g>
			<g>
				<path style="fill:#765DA8;" d="M171.601,24.873l12.97-7.569c0.236-0.138,0.317-0.444,0.179-0.68l-2.087-3.577
					c-0.138-0.236-0.444-0.317-0.68-0.179l-12.969,7.568c-0.236,0.138-0.317,0.444-0.179,0.68l2.087,3.577
					C171.059,24.931,171.365,25.011,171.601,24.873z"/>
				<path style="fill:#765DA8;" d="M164.047,17.584l18.764-10.95c0.413-0.241,0.553-0.775,0.312-1.188l-2.474-4.24
					c-0.241-0.413-0.775-0.553-1.188-0.312l-18.764,10.95c-0.413,0.241-0.553,0.775-0.312,1.188l2.474,4.24
					C163.1,17.684,163.634,17.825,164.047,17.584z"/>
				<polygon style="fill:#EAEAEA;" points="181.129,13.367 180.691,7.871 166.166,16.347 169.866,19.94 				"/>
			</g>
			<g>
				<path style="fill:#765DA8;" d="M231.18,107.086l37.588-0.032c1.305-0.001,2.361-1.06,2.36-2.364l-0.006-7.136l-42.312,0.036
					l0.006,7.136C228.817,106.03,229.875,107.087,231.18,107.086z"/>
				<polygon style="fill:#EAEAEA;" points="260.833,117.497 265.137,107.057 234.811,107.083 239.288,117.516 				"/>
			</g>
			<path style="fill:#765DA8;" d="M262.981,121.846h-25.71c-0.351,0-0.638-0.287-0.638-0.638V117.6c0-0.351,0.287-0.638,0.638-0.638
				h25.71c0.351,0,0.638,0.287,0.638,0.638v3.607C263.619,121.559,263.332,121.846,262.981,121.846z"/>
		</g>
	</g>
</g>
<g id="Text">
	<g>
		<path style="fill:#765DA8;" d="M24.923,256.735h-3.467l-2.694-6.812l-2.291-6.842l-2.26,6.904l-2.631,6.749H8.111l-7.957-21.672
			h4.582l5.108,15.635l5.263-15.635h2.663l5.418,15.635l4.954-15.635h4.582L24.923,256.735z"/>
		<path style="fill:#765DA8;" d="M35.609,250.45c0.248,1.889,1.888,3.251,4.551,3.251c1.394,0,3.22-0.526,4.087-1.424l2.415,2.384
			c-1.61,1.672-4.242,2.477-6.564,2.477c-5.263,0-8.39-3.251-8.39-8.143c0-4.644,3.158-7.987,8.112-7.987
			c5.108,0,8.297,3.158,7.709,9.442H35.609z M43.906,247.323c-0.248-1.981-1.795-2.972-3.963-2.972c-2.043,0-3.715,0.99-4.272,2.972
			H43.906z"/>
		<path style="fill:#765DA8;" d="M54.188,235.095v21.641h-3.746v-21.641H54.188z"/>
		<path style="fill:#765DA8;" d="M70.598,254.785c-1.765,1.733-3.622,2.415-5.882,2.415c-4.427,0-8.112-2.663-8.112-8.081
			s3.685-8.08,8.112-8.08c2.167,0,3.839,0.619,5.511,2.26l-2.384,2.508c-0.898-0.805-2.012-1.208-3.065-1.208
			c-2.539,0-4.396,1.858-4.396,4.521c0,2.91,1.981,4.458,4.334,4.458c1.208,0,2.415-0.34,3.344-1.27L70.598,254.785z"/>
		<path style="fill:#765DA8;" d="M87.751,249.119c0,4.396-3.003,7.957-7.957,7.957s-7.926-3.561-7.926-7.957
			c0-4.365,3.034-7.957,7.895-7.957C84.624,241.162,87.751,244.754,87.751,249.119z M75.646,249.119
			c0,2.322,1.394,4.489,4.149,4.489s4.148-2.167,4.148-4.489c0-2.291-1.61-4.521-4.148-4.521
			C77.07,244.599,75.646,246.828,75.646,249.119z"/>
		<path style="fill:#765DA8;" d="M100.51,256.735v-8.174c0-2.012-1.053-3.839-3.127-3.839c-2.044,0-3.251,1.827-3.251,3.839v8.174
			h-3.777v-15.294h3.499l0.278,1.857c0.805-1.548,2.569-2.105,4.024-2.105c1.827,0,3.653,0.743,4.521,2.849
			c1.362-2.167,3.127-2.787,5.108-2.787c4.334,0,6.471,2.663,6.471,7.245v8.235h-3.777V248.5c0-2.013-0.836-3.715-2.879-3.715
			c-2.044,0-3.313,1.765-3.313,3.776v8.174H100.51z"/>
		<path style="fill:#765DA8;" d="M121.318,250.45c0.248,1.889,1.889,3.251,4.552,3.251c1.393,0,3.22-0.526,4.086-1.424l2.415,2.384
			c-1.609,1.672-4.241,2.477-6.563,2.477c-5.263,0-8.39-3.251-8.39-8.143c0-4.644,3.157-7.987,8.111-7.987
			c5.108,0,8.297,3.158,7.709,9.442H121.318z M129.616,247.323c-0.248-1.981-1.796-2.972-3.963-2.972
			c-2.044,0-3.716,0.99-4.272,2.972H129.616z"/>
		<path style="fill:#765DA8;" d="M147.731,237.169v4.334h4.211v3.251H147.7v6.595c0,1.455,0.806,2.167,1.981,2.167
			c0.589,0,1.27-0.186,1.827-0.465l1.053,3.22c-1.084,0.434-1.981,0.62-3.127,0.65c-3.313,0.124-5.48-1.765-5.48-5.572v-6.595
			h-2.848v-3.251h2.848v-3.932L147.731,237.169z"/>
		<path style="fill:#765DA8;" d="M169.932,249.119c0,4.396-3.004,7.957-7.957,7.957c-4.954,0-7.926-3.561-7.926-7.957
			c0-4.365,3.034-7.957,7.895-7.957C166.805,241.162,169.932,244.754,169.932,249.119z M157.826,249.119
			c0,2.322,1.393,4.489,4.148,4.489s4.148-2.167,4.148-4.489c0-2.291-1.609-4.521-4.148-4.521
			C159.25,244.599,157.826,246.828,157.826,249.119z"/>
		<path style="fill:#E15465;" d="M198.17,254.011c-2.229,2.198-5.108,3.22-8.235,3.22c-8.05,0-11.455-5.542-11.486-11.177
			c-0.03-5.665,3.653-11.424,11.486-11.424c2.941,0,5.728,1.114,7.957,3.313l-2.725,2.632c-1.424-1.394-3.344-2.043-5.232-2.043
			c-5.232,0-7.492,3.9-7.461,7.522c0.031,3.592,2.105,7.338,7.461,7.338c1.889,0,4.025-0.774,5.449-2.198L198.17,254.011z"/>
		<path style="fill:#E15465;" d="M221.765,246.023c-0.062,5.604-3.498,11.207-11.114,11.207s-11.146-5.479-11.146-11.177
			c0-5.696,3.653-11.424,11.146-11.424C218.111,234.63,221.827,240.357,221.765,246.023z M203.529,246.116
			c0.093,3.561,2.013,7.368,7.121,7.368s7.027-3.839,7.09-7.399c0.062-3.653-1.981-7.74-7.09-7.74S203.437,242.463,203.529,246.116z
			"/>
		<path style="fill:#E15465;" d="M235.546,256.828h-4.242l-9.009-21.765h4.582l6.532,16.873l6.563-16.873h4.582L235.546,256.828z"/>
		<path style="fill:#E15465;" d="M247.097,256.735v-21.672h4.056v21.672H247.097z"/>
		<path style="fill:#E15465;" d="M274.064,245.714c0.093,5.479-3.251,11.021-10.837,11.021c-2.662,0-5.851,0-8.514,0v-21.672
			c2.663,0,5.852,0,8.514,0C270.658,235.064,273.971,240.357,274.064,245.714z M258.77,252.804h4.458
			c4.923,0,6.874-3.592,6.78-7.121c-0.093-3.375-2.074-6.749-6.78-6.749h-4.458V252.804z"/>
		<path style="fill:#E15465;" d="M276.328,244.908h11.424v3.468h-11.424V244.908z"/>
		<path style="fill:#E15465;" d="M289.704,253.268h3.251v-14.489h-3.374v-3.715h7.43v18.204h3.003v3.468h-10.31V253.268z"/>
		<path style="fill:#E15465;" d="M316.362,250.017v-3.25c-0.96,1.485-3.313,2.291-5.016,2.291c-4.366,0-8.948-1.827-8.948-7.214
			c0-4.799,4.613-7.183,8.979-7.183c4.428,0,9.041,2.384,9.041,7.244v8.081c0,4.829-4.459,7.09-8.917,7.09
			c-4.706,0-9.01-1.857-9.01-6.409h4.087c0,1.92,2.539,2.88,4.861,2.88c2.445,0.03,4.923-1.301,4.923-3.653V250.017z
			 M306.454,241.844c0,2.384,2.168,3.653,4.893,3.653c2.724,0,5.046-1.238,5.016-3.653c-0.031-2.384-2.322-3.529-4.985-3.529
			C308.808,238.314,306.454,239.46,306.454,241.844z"/>
	</g>
	<g>
		<path style="fill:#14133F;" d="M17.4,293.794l1.591-1.849c1.848,2.106,4.857,4.169,8.983,4.169c5.846,0,7.522-3.267,7.522-5.717
			c0-8.425-17.194-4.04-17.194-14.056c0-4.686,4.212-7.651,9.414-7.651c4.255,0,7.522,1.505,9.714,4.041l-1.633,1.806
			c-2.063-2.493-4.986-3.611-8.21-3.611c-3.826,0-6.706,2.192-6.706,5.287c0,7.351,17.193,3.31,17.193,14.013
			c0,3.697-2.45,8.124-10.187,8.124C23.16,298.35,19.592,296.415,17.4,293.794z"/>
		<path style="fill:#14133F;" d="M43.964,297.834v-28.67h18.182v2.234H46.414v10.617h15.432v2.235H46.414v11.348h15.732v2.235
			H43.964z"/>
		<path style="fill:#14133F;" d="M67.605,297.834v-28.67h2.493v26.435h13.884v2.235H67.605z"/>
		<path style="fill:#14133F;" d="M89.011,297.834v-28.67h18.182v2.234H91.461v10.617h15.432v2.235H91.461v13.583H89.011z"/>
		<path style="fill:#14133F;" d="M122.366,283.521c0-8.812,6.404-14.83,14.528-14.83c4.557,0,8.038,2.021,10.445,5.072l-2.063,1.333
			c-1.805-2.493-4.943-4.17-8.382-4.17c-6.706,0-11.949,5.115-11.949,12.595c0,7.393,5.244,12.594,11.949,12.594
			c3.439,0,6.577-1.676,8.382-4.169l2.106,1.289c-2.579,3.138-5.932,5.115-10.488,5.115
			C128.77,298.35,122.366,292.332,122.366,283.521z"/>
		<path style="fill:#14133F;" d="M172.914,297.834v-13.626h-18.182v13.626h-2.45v-28.67h2.45v12.809h18.182v-12.809h2.45v28.67
			H172.914z"/>
		<path style="fill:#14133F;" d="M182.499,297.834v-28.67h18.183v2.234h-15.732v10.617h15.432v2.235h-15.432v11.348h15.732v2.235
			H182.499z"/>
		<path style="fill:#14133F;" d="M205.668,283.521c0-8.812,6.404-14.83,14.528-14.83c4.557,0,8.038,2.021,10.445,5.072l-2.063,1.333
			c-1.805-2.493-4.943-4.17-8.382-4.17c-6.705,0-11.949,5.115-11.949,12.595c0,7.393,5.244,12.594,11.949,12.594
			c3.438,0,6.577-1.676,8.382-4.169l2.106,1.289c-2.579,3.138-5.932,5.115-10.488,5.115
			C212.072,298.35,205.668,292.332,205.668,283.521z"/>
		<path style="fill:#14133F;" d="M253.036,297.834l-11.821-13.497l-3.181,3.481v10.016h-2.45v-28.67h2.45v15.688l13.841-15.688
			h3.138l-12.207,13.669l13.368,15.001H253.036z"/>
		<path style="fill:#14133F;" d="M260.772,297.834v-28.67h18.183v2.234h-15.732v10.617h15.432v2.235h-15.432v11.348h15.732v2.235
			H260.772z"/>
		<path style="fill:#14133F;" d="M301.822,297.834l-8.038-11.863h-6.318v11.863h-2.45v-28.67h10.703
			c4.943,0,8.726,3.138,8.726,8.382c0,5.201-3.653,8.081-7.952,8.253l8.296,12.035H301.822z M301.865,277.546
			c0-3.611-2.536-6.147-6.361-6.147h-8.038v12.337h8.038C299.329,283.735,301.865,281.156,301.865,277.546z"/>
	</g>
</g>
<g id="Layer_4">
	<g>
		<g>
			
				<ellipse transform="matrix(0.4299 -0.9029 0.9029 0.4299 -112.9051 214.7202)" style="fill:#7D52A1;" cx="113.584" cy="196.77" rx="23.776" ry="23.776"/>
			<path style="fill:#8560A9;" d="M91.985,194.535c-0.816-2.074,0.21-4.414,2.276-5.226c2.074-0.816,4.411,0.202,5.226,2.276
				c0.816,2.074-0.202,4.411-2.276,5.226C95.145,197.624,92.8,196.609,91.985,194.535z"/>
			<path style="fill:#8560A9;" d="M97.652,165.024c3.378-1.328,7.198,0.336,8.526,3.714c0.744,1.892,0.551,3.922-0.368,5.577
				c-0.399,0.735-0.945,1.4-1.626,1.933c0.72,0.616,1.434,1.244,2.128,1.889l-0.041,0.035c-0.972,1.612-2.939,2.56-4.795,2.344
				c-0.048-0.963-0.1-1.934-0.14-2.9l-0.005-0.035c-0.637,0.131-1.276,0.162-1.907,0.098c-2.373-0.223-4.544-1.755-5.479-4.132
				C92.618,170.169,94.274,166.352,97.652,165.024z"/>
			<path style="fill:#8560A9;" d="M84.567,204.095c-2.106,0.828-4.498-0.214-5.326-2.32c-0.831-2.114,0.214-4.498,2.32-5.326
				c2.114-0.831,4.495,0.206,5.326,2.32c0.053,0.135,0.098,0.273,0.14,0.404c0.956-0.183,1.901-0.371,2.856-0.554
				c0.672-0.136,1.346-0.263,2.018-0.399c0.003,0.008,0.003,0.008,0.003,0.008c0.049,0.1,0.1,0.208,0.149,0.309
				c0.215,0.475,0.348,1.001,0.275,1.516c-0.04,0.319-0.169,0.645-0.383,0.894c-0.591-0.034-1.183-0.067-1.776-0.082
				c-1.013-0.033-2.025-0.039-3.038-0.026C86.936,202.255,85.997,203.533,84.567,204.095z"/>
			<path style="fill:#8560A9;" d="M91.809,186.317c-0.627,0.669-1.404,1.213-2.31,1.569c-3.298,1.297-7.022-0.332-8.316-3.622
				c-1.297-3.298,0.324-7.019,3.622-8.316c3.29-1.294,7.011,0.327,8.308,3.625c0.544,1.383,0.57,2.85,0.175,4.18
				C93.004,184.71,92.504,185.585,91.809,186.317z"/>
			<path style="fill:#8560A9;" d="M131.513,181.149c0.48-0.647,1.131-1.161,1.934-1.476c2.313-0.909,4.918,0.232,5.824,2.537
				c0.909,2.313-0.224,4.915-2.537,5.824c-0.31,0.122-0.624,0.209-0.939,0.25c-2.035,0.332-4.09-0.787-4.878-2.79
				C130.327,183.992,130.6,182.352,131.513,181.149z"/>
			<path style="fill:#8560A9;" d="M93.415,187.879l-0.013,0.014c-0.464-0.386-0.898-0.812-1.303-1.259
				c0.447-0.965,0.955-1.89,1.539-2.762c0.603,0.203,1.209,0.369,1.824,0.485C95.693,185.809,94.802,187.37,93.415,187.879z"/>
			<path style="fill:#8560A9;" d="M120.788,162.25c2.782-1.094,5.919,0.279,7.012,3.061c1.094,2.782-0.268,5.923-3.05,7.017
				c-0.549,0.216-1.107,0.334-1.658,0.358l0.004,0.081c-0.145,0.681-0.29,1.362-0.447,2.039c-0.469,2.075-0.99,4.133-1.552,6.181
				c-1.194-0.072-2.397-0.214-3.509-0.639c-0.778-0.3-1.505-0.748-2.081-1.348l0.046-0.046c0.919-1.839,1.875-3.656,2.898-5.443
				c0.333-0.599,0.686-1.196,1.033-1.783l0.066-0.09c-0.796-0.577-1.436-1.39-1.821-2.367
				C116.636,166.489,118.006,163.344,120.788,162.25z"/>
			<path style="fill:#8560A9;" d="M110.647,184.306c0.753,1.915-0.187,4.075-2.103,4.828c-1.915,0.753-4.075-0.187-4.828-2.103
				c-0.75-1.908,0.187-4.075,2.103-4.828C107.735,181.45,109.897,182.399,110.647,184.306z"/>
			<path style="fill:#8560A9;" d="M119.576,227.367c-3.155,1.241-6.721-0.312-7.965-3.476c-0.447-1.137-0.532-2.333-0.302-3.451
				c0.378-1.91,1.659-3.598,3.566-4.421l-0.067-0.148l-0.697-1.772c1.718-0.859,3.754-1.026,5.59-0.464l0.139,0.074
				c-0.348,0.678-0.728,1.323-1.152,1.949c1.684,0.384,3.174,1.468,4.032,3.067c0.119,0.21,0.226,0.434,0.32,0.673
				C124.285,222.561,122.732,226.126,119.576,227.367z"/>
			<path style="fill:#8560A9;" d="M133.042,210.455c0.412,0.627,0.839,1.248,1.272,1.858c2.547-1.552,5.923-1.063,7.906,1.296
				c2.187,2.599,1.852,6.485-0.755,8.675c-2.6,2.187-6.485,1.852-8.675-0.755c-1.784-2.134-1.881-5.134-0.421-7.35
				c-0.56-0.303-1.121-0.587-1.698-0.865c-0.459-0.233-0.93-0.451-1.398-0.662c0.351-1.533,1.462-2.887,2.902-3.518
				C132.46,209.582,132.743,210.022,133.042,210.455z"/>
			<path style="fill:#8560A9;" d="M96.33,230.606c-2.75,1.081-5.861-0.274-6.943-3.024c-1.081-2.75,0.274-5.861,3.024-6.943
				c1.621-0.638,3.363-0.432,4.741,0.412c1.002-1.559,1.931-3.164,2.777-4.817c0.302-0.587,0.6-1.181,0.879-1.777
				c0.625,0.048,1.229,0.278,1.717,0.656c0.532,0.396,0.922,0.968,1.118,1.607c-0.384,0.353-0.765,0.714-1.132,1.088
				c-1.426,1.368-2.814,2.786-4.163,4.234c0.419,0.459,0.762,1.004,1.005,1.624C100.435,226.413,99.088,229.522,96.33,230.606z"/>
			<path style="fill:#8560A9;" d="M125.015,208.151c-1.494,0.588-3.188-0.15-3.779-1.653c-0.588-1.494,0.15-3.188,1.645-3.776
				c1.502-0.591,3.196,0.147,3.784,1.641C127.255,205.866,126.517,207.56,125.015,208.151z"/>
			<path style="fill:#8560A9;" d="M91.92,214.583c-1.081,0.425-2.299-0.105-2.724-1.186c-0.425-1.081,0.106-2.299,1.186-2.724
				c0.834-0.328,1.748-0.082,2.322,0.537c0.441-0.302,0.876-0.62,1.311-0.937c0.792-0.577,1.569-1.168,2.34-1.773
				c0.189,0.293,0.309,0.622,0.362,0.968c0.09,0.579-0.045,1.192-0.357,1.682l-1.302,0.54c-0.609,0.249-1.21,0.494-1.819,0.743
				C93.331,213.34,92.811,214.233,91.92,214.583z"/>
			<path style="fill:#8560A9;" d="M108.467,202.939c0.85,2.162-0.208,4.606-2.37,5.456c-2.162,0.85-4.601-0.219-5.451-2.381
				c-0.847-2.154,0.211-4.598,2.373-5.448C105.181,199.716,107.62,200.785,108.467,202.939z"/>
			<path style="fill:#8560A9;" d="M129.169,191.339c0.65,1.653-0.165,3.525-1.818,4.175c-1.661,0.653-3.532-0.162-4.182-1.815
				c-0.653-1.661,0.162-3.532,1.823-4.186C126.645,188.863,128.516,189.678,129.169,191.339z"/>
			<path style="fill:#8560A9;" d="M116.962,201.416c-3.155,1.241-6.721-0.312-7.961-3.468c-1.241-3.155,0.312-6.721,3.468-7.961
				c3.155-1.241,6.721,0.312,7.961,3.468C121.67,196.609,120.117,200.175,116.962,201.416z"/>
			<path style="fill:#8560A9;" d="M113.934,205.313c1.51-0.594,3.215,0.149,3.806,1.651c0.594,1.51-0.149,3.215-1.659,3.809
				c-1.51,0.594-3.215-0.149-3.809-1.659C111.681,207.612,112.423,205.907,113.934,205.313z"/>
			<path style="fill:#8560A9;" d="M131.923,198.552l0.156,0.095c1.065,0.352,2.108,0.786,3.109,1.301l0.114,0.056
				c0.449-0.865,1.146-1.589,2.041-2.069c0.17-0.104,0.358-0.187,0.557-0.265c2.599-1.022,5.522,0.251,6.541,2.842
				c1.022,2.599-0.251,5.522-2.85,6.544c-2.146,0.844-4.524,0.118-5.85-1.646c-0.279-0.358-0.511-0.763-0.686-1.208
				c-0.225-0.572-0.334-1.153-0.343-1.737l-0.089,0.007c-1.07,0.008-2.141,0.016-3.212,0.024l-0.257,0.046
				C130.875,201.185,131.148,199.71,131.923,198.552z"/>
		</g>
		<g>
			
				<ellipse transform="matrix(0.565 -0.8251 0.8251 0.565 -90.7914 120.0318)" style="fill:#8560A9;" cx="68.435" cy="146.117" rx="18.779" ry="18.779"/>
			<path style="fill:#7D52A1;" d="M67.9,141.991c-0.894-2.273,0.23-4.855,2.504-5.749c2.284-0.898,4.855,0.231,5.749,2.504
				c0.898,2.283-0.216,4.861-2.5,5.759C71.379,145.399,68.798,144.275,67.9,141.991z"/>
			<path style="fill:#7D52A1;" d="M58.83,156.716c-1.343-3.415,0.339-7.256,3.744-8.595c3.405-1.339,7.252,0.328,8.595,3.744
				c1.339,3.405-0.338,7.256-3.744,8.595C64.02,161.799,60.169,160.121,58.83,156.716z"/>
			<path style="fill:#7D52A1;" d="M74.608,150.582c-0.583-1.482,0.147-3.157,1.629-3.739c1.482-0.583,3.157,0.146,3.739,1.629
				c0.583,1.482-0.146,3.157-1.629,3.739C76.865,152.794,75.191,152.064,74.608,150.582z"/>
		</g>
		<path style="fill:#8560A9;" d="M50.491,174.063c1.974,5.037,9.805,1.976,7.827-3.068
			C56.345,165.958,48.514,169.018,50.491,174.063z"/>
		<path style="fill:#8560A9;" d="M44.389,196.545c1.974,5.037,9.805,1.976,7.827-3.068C50.242,188.44,42.412,191.5,44.389,196.545z"
			/>
		<path style="fill:#8560A9;" d="M97.958,151.499c1.974,5.037,9.805,1.977,7.827-3.068
			C103.811,143.394,95.981,146.454,97.958,151.499z"/>
		<path style="fill:#8560A9;" d="M118.46,147.115c1.974,5.037,9.805,1.976,7.827-3.068
			C124.313,139.01,116.483,142.07,118.46,147.115z"/>
		<path style="fill:#8560A9;" d="M111.727,131.491c1.974,5.037,9.805,1.977,7.827-3.068
			C117.58,123.386,109.749,126.446,111.727,131.491z"/>
	</g>
</g>
</svg>
